<?xml version="1.0" encoding="utf-8"?>
<!-- Generator: Adobe Illustrator 22.0.1, SVG Export Plug-In . SVG Version: 6.00 Build 0)  -->
<svg version="1.1" id="레이어_1" xmlns="http://www.w3.org/2000/svg" xmlns:xlink="http://www.w3.org/1999/xlink" x="0px"
	 y="0px" viewBox="0 0 26 26" style="enable-background:new 0 0 26 26;" xml:space="preserve">
<style type="text/css">
	.st0{fill:#585C6E;}
</style>
<path class="st0" d="M20.3,5.7L20.3,5.7c-1.2-1.2-3.2-1.2-4.5,0l-0.2,0.2l-0.8,0.8l-9.1,9.1l0,0c-0.1,0.3-1.5,3.8-0.9,5.3
	c1.5,0.6,5-0.7,5.3-0.9l0,0l0,0l0.8-0.8l8.3-8.3l0.8-0.8l0.2-0.2C21.6,8.9,21.6,6.9,20.3,5.7z M5.9,20.1c0-0.8,0.3-2.2,0.8-3.4
	l2.6,2.6C8.2,19.7,6.8,20.1,5.9,20.1z M8.8,17.2l-1.4-1.4l8.2-8.2l2.8,2.8l-8.2,8.2C9.6,17.9,8.8,17.2,8.8,17.2z M16.7,6.5
	c0.8-0.8,2-0.8,2.8,0c0.8,0.8,0.8,2,0,2.8l-0.1,0.1l-2.8-2.8L16.7,6.5z"/>
</svg>
