<?xml version="1.0" encoding="utf-8"?>
<!-- Generator: Adobe Illustrator 22.0.1, SVG Export Plug-In . SVG Version: 6.00 Build 0)  -->
<svg version="1.1" id="레이어_1" xmlns="http://www.w3.org/2000/svg" xmlns:xlink="http://www.w3.org/1999/xlink" x="0px"
	 y="0px" viewBox="0 0 50 50" style="enable-background:new 0 0 50 50;" xml:space="preserve">
<style type="text/css">
	.st0{fill:#585C6E;}
</style>
<g>
	<path class="st0" d="M48.9,23C48,12.1,39.6,3.1,28.9,1.3c-9.4-1.6-19,2.8-24.1,10.8c-5.6,8.7-4.8,20.4,1.8,28.3
		c6.5,7.8,17.5,10.6,27,7C43.4,43.7,49.8,33.5,48.9,23z M17.3,5.9L5.8,17.4C7.9,12.1,12.1,8,17.3,5.9z M5,19.9
		c2.8-2.8,5.5-5.5,8.3-8.3c1.7-1.7,3.3-3.3,5-5c1.8-1.8,2.9-2,5.7-2.2c-6.5,6.5-13,13-19.6,19.6C4.5,22.6,4.7,21.3,5,19.9z
		 M17.3,44.1c1.8-1.8,3.5-3.5,5.3-5.3c-0.4-0.2-0.7-0.4-1-0.7c-0.5,0.5-1,1-1.5,1.5c-1,1-2.1,2.1-3.1,3.1c-1.2,1.2-1.4,0.8-3.1-0.4
		c2.1-2.1,4.2-4.2,6.3-6.3c-0.2-0.4-0.3-0.9-0.3-1.4c-1.2,1.2-2.5,2.5-3.7,3.7c-0.8,0.8-1.6,1.8-2.5,2.5c-1.3,1-1.1,0.6-2.7-0.9
		c3.3-3.3,6.5-6.5,9.8-9.8c-0.2-0.3-0.4-0.7-0.4-1.2c0-0.1,0-0.1,0-0.2c-3.4,3.4-6.9,6.9-10.3,10.3C9.5,38.6,9,38,8.5,37.3
		c4.3-4.3,8.6-8.6,12.9-12.9c0.6-1.1,1.5-2.1,2.7-3c1.5-1.2,1.8-1.6,1.8-1.9c0-0.2-0.3-0.3-0.8-0.3c-0.1,0-0.1,0.1-0.2,0.1
		c-0.2,0.2-0.5,0.5-0.7,0.7c0,0,0,0,0,0c0,1.1-0.9,2.1-2.1,2.1h0c-4.8,4.8-9.5,9.5-14.3,14.3c-0.5-0.7-0.9-1.5-1.3-2.2
		c4-4,8.1-8.1,12.1-12.1h-1.5c-0.1,0-0.1,0-0.2,0C13.2,25.6,9.6,29.3,6,32.9c-0.4-0.9-0.6-1.7-0.9-2.6c3.3-3.3,6.7-6.7,10-10
		c0-0.1-0.1-0.2-0.1-0.4c0-0.5,0.1-1,0.1-1.4C11.7,22,8.2,25.5,4.8,28.9c-0.2-1-0.3-2.1-0.3-3.2C8.2,22,12,18.2,15.7,14.4
		c2.4-2.4,4.8-4.8,7.3-7.3c0.7-0.7,1.4-1.6,2.2-2.2c1.2-0.9,2.1-0.5,3.7-0.2c-2,2-4,4-6,6c0.6-0.1,1.2-0.2,1.9-0.2
		c0.7-0.7,1.3-1.3,2-2c0.9-0.9,1.7-1.9,2.7-2.7c1.3-1,1.4-0.8,3.5,0.1c-1.6,1.6-3.3,3.3-4.9,4.9c0.5,0.1,0.9,0.2,1.3,0.4
		c0.3-0.3,0.7-0.7,1-1c1-1,1.9-1.9,2.9-2.9c1.2-1.2,1.4-0.8,3.1,0.4c-1.6,1.6-3.1,3.1-4.7,4.7c0.3,0.2,0.7,0.5,0.9,0.8
		c0.5-0.5,1.1-1.1,1.6-1.6c0.8-0.8,1.6-1.8,2.5-2.5c1.2-0.9,1.1-0.5,2.6,0.9c-1.7,1.7-3.5,3.5-5.2,5.2c0.2,0.4,0.4,0.8,0.5,1.2
		c1.8-1.8,3.7-3.7,5.5-5.5c1.1,1.2,1.7,1.3,1.1,2.4c-0.4,0.7-1.3,1.3-1.9,1.9c-1.4,1.4-2.8,2.8-4.2,4.2c0,0.7-0.1,1.3-0.3,2
		c2.5-2.5,5.1-5.1,7.6-7.6c1.1,1.8,1.6,1.9,0.4,3.1c-1,1-2.1,2.1-3.1,3.1c-3.2,3.2-6.5,6.5-9.7,9.7c-0.3,0.3-0.7,0.7-1,1
		c0.3,0.3,0.5,0.7,0.7,1c4.9-4.9,9.7-9.7,14.6-14.6c0.7,1.7,1.1,2.1,0.1,3.4c-0.8,1-1.9,1.9-2.8,2.8c-3,3-6,6-9,9
		c-0.8,0.8-1.6,1.6-2.4,2.4c-0.3,2.4-2,4.2-4.5,4.5c-0.7,0.7-1.4,1.4-2.1,2.1c-0.9,0.9-1.8,2.1-2.8,2.8
		C19.5,45.2,19.1,44.8,17.3,44.1z M33.2,43.9l10.6-10.6C41.8,38,38,41.8,33.2,43.9z M43.4,32c-1.6,1.6-3.3,3.3-4.9,4.9
		c-2.6,2.6-5.3,5.3-7.9,7.9c-1.4,0.4-2.8,0.6-4.2,0.7c6.4-6.4,12.8-12.8,19.2-19.2C45.3,28.9,45.1,30.3,43.4,32z M45,25.2
		c-0.6,0.8-1.5,1.5-2.2,2.2c-2.6,2.6-5.1,5.1-7.7,7.7c-2.6,2.6-5.1,5.1-7.7,7.7c-0.7,0.7-1.4,1.6-2.2,2.2c-1.2,0.9-2.2,0.5-3.8,0.3
		c8-8,15.9-15.9,23.9-23.9C45.5,23,45.8,24,45,25.2z"/>
	<path class="st0" d="M25.3,23c1.7-1.3,2.6-2.2,2.6-3.6c0-1.5-1-2.4-2.9-2.4c-1.9,0-3,1.4-3,2.8h-5.1c0-4.2,3.3-7.3,8-7.3
		c5,0,7.9,2.9,7.9,6.8c0,2.2-1,3.9-2.9,5.3c-2.1,1.7-2.8,2.7-2.8,4.3h-4.8C22.4,26.2,23.2,24.6,25.3,23z M21.9,34.3
		c0-1.8,1.3-3.1,3.1-3.1c1.8,0,3.1,1.3,3.1,3.1c0,1.8-1.3,3.1-3.1,3.1C23.2,37.4,21.9,36.1,21.9,34.3z"/>
</g>
</svg>
