<?xml version="1.0" encoding="utf-8"?>
<!-- Generator: Adobe Illustrator 22.0.1, SVG Export Plug-In . SVG Version: 6.00 Build 0)  -->
<svg version="1.1" id="레이어_1" xmlns="http://www.w3.org/2000/svg" xmlns:xlink="http://www.w3.org/1999/xlink" x="0px"
	 y="0px" viewBox="0 0 20 20" style="enable-background:new 0 0 20 20;" xml:space="preserve">
<style type="text/css">
	.st0{fill:#585C6E;}
</style>
<g>
	<path class="st0" d="M10,0.6c-5.2,0-9.4,4.2-9.4,9.4s4.2,9.4,9.4,9.4s9.4-4.2,9.4-9.4S15.2,0.6,10,0.6z M10,17.9
		c-4.4,0-7.9-3.5-7.9-7.9S5.6,2.1,10,2.1s7.9,3.5,7.9,7.9S14.4,17.9,10,17.9z"/>
	<path class="st0" d="M10,12.6c-0.7,0-1.3,0.5-1.3,1.3c0,0.7,0.5,1.3,1.3,1.3s1.3-0.5,1.3-1.3C11.3,13.1,10.7,12.6,10,12.6z"/>
	<path class="st0" d="M10,4.9c-1.9,0-3.3,1.3-3.3,3h2.1c0-0.6,0.4-1.2,1.2-1.2c0.8,0,1.2,0.4,1.2,1c0,0.6-0.4,0.9-1.1,1.5
		c-0.9,0.7-1.2,1.3-1.2,2.5h2c0-0.7,0.3-1.1,1.2-1.8c0.8-0.6,1.2-1.3,1.2-2.2C13.3,6.1,12.1,4.9,10,4.9z"/>
</g>
</svg>
