<?xml version="1.0" encoding="utf-8"?>
<!-- Generator: Adobe Illustrator 22.0.1, SVG Export Plug-In . SVG Version: 6.00 Build 0)  -->
<svg version="1.1" id="레이어_1" xmlns="http://www.w3.org/2000/svg" xmlns:xlink="http://www.w3.org/1999/xlink" x="0px"
	 y="0px" viewBox="0 0 40 40" style="enable-background:new 0 0 40 40;" xml:space="preserve">
<style type="text/css">
	.st0{fill:#3F4652;}
</style>
<path class="st0" d="M0,0v40h40V0H0z M20.1,10c2.5,0,4.7,2.1,4.7,4.7c0,2.5-2.1,4.7-4.7,4.7c-2.5,0-4.7-2.1-4.7-4.7
	C15.4,12,17.5,10,20.1,10z M28,28.9L28,28.9c-0.1,0.6-0.5,1.1-1.2,1.1H13.1c-0.6,0-1.1-0.5-1.1-1.1v-1.8c0-3.6,2.9-6.5,6.5-6.5h3
	c3.6,0,6.5,2.9,6.5,6.5V28.9z"/>
</svg>
